<svg xmlns="http://www.w3.org/2000/svg" width="900" height="600" id="flag-icon-css-default">
  <rect
     style="fill:#ffffff"
     id="rect2193"
     width="900"
     height="600"
     x="0"
     y="0" />
  <path
     transform="matrix(7.2562358,0,0,4.2244224,-2786.1101,-614.62704)"
     style="font-size:144px;font-weight:bold;text-align:center;text-anchor:middle;font-family:Times New Roman"
     d="M 443.79688,227.32579 L 440.91406,227.32579 C 440.82028,222.1227 441.06637,218.23208 441.65234,215.65391 C 442.23825,213.07583 443.76168,209.52506 446.22266,205.00157 C 448.68355,200.47819 450.30074,196.84538 451.07422,194.10313 C 451.84761,191.36101 452.23433,187.9743 452.23438,183.94298 C 452.23433,177.70868 451.01558,173.11494 448.57813,170.16173 C 446.14059,167.20869 443.25778,165.73213 439.92969,165.73204 C 437.39841,165.73213 435.2656,166.41182 433.53125,167.7711 C 432.21873,168.80244 431.56248,169.88056 431.5625,171.00548 C 431.56248,171.75556 432.00779,172.92744 432.89844,174.5211 C 434.91404,178.13056 435.92185,181.20087 435.92188,183.73204 C 435.92185,186.02899 435.13669,187.95086 433.56641,189.49766 C 431.99607,191.04461 430.03904,191.81804 427.69531,191.81798 C 425.0703,191.81804 422.86717,190.89226 421.08594,189.04063 C 419.30468,187.18914 418.41405,184.73992 418.41406,181.69298 C 418.41405,176.16181 420.80468,171.31025 425.58594,167.13829 C 430.36717,162.96651 437.04685,160.88057 445.625,160.88048 C 454.7187,160.88057 461.64448,163.04854 466.40234,167.38438 C 471.16009,171.72041 473.539,176.95868 473.53906,183.09923 C 473.539,187.55242 472.32025,191.6657 469.88281,195.43907 C 467.44525,199.21257 462.73432,203.39616 455.75,207.98985 C 451.06246,211.08365 447.98043,213.83755 446.50391,216.25157 C 445.02731,218.66567 444.12497,222.35707 443.79688,227.32579 L 443.79688,227.32579 z M 443.02344,237.59141 C 446.16403,237.59143 448.8359,238.693 451.03906,240.8961 C 453.24214,243.09924 454.34371,245.77111 454.34375,248.91173 C 454.34371,252.05236 453.24214,254.73595 451.03906,256.96251 C 448.8359,259.18907 446.16403,260.30235 443.02344,260.30235 C 439.88278,260.30235 437.21091,259.18907 435.00781,256.96251 C 432.80466,254.73595 431.7031,252.05236 431.70313,248.91173 C 431.7031,245.77111 432.80466,243.09924 435.00781,240.8961 C 437.21091,238.693 439.88278,237.59143 443.02344,237.59141 L 443.02344,237.59141 z "
     id="flowRoot2165" />
</svg>